<mxfile host="app.diagrams.net" modified="2024-02-14T18:56:19.427Z" agent="Mozilla/5.0 (Windows NT 10.0; Win64; x64; rv:122.0) Gecko/20100101 Firefox/122.0" version="23.1.1" etag="2sHvFXB6ld0l1-dClTW_" type="github">
  <diagram name="Page-1" id="-lxWOu84JO_UOrh-9n1M">
    <mxGraphModel>
      <root>
        <mxCell id="0" />
        <mxCell id="1" parent="0" />
      </root>
    </mxGraphModel>
  </diagram>
</mxfile>
